<svg height="512pt" viewBox="-38 0 512 512" width="512pt" xmlns="http://www.w3.org/2000/svg"><path d="m426.667969 102.398438v247.46875c-.03125 9.414062-7.652344 17.039062-17.066407 17.066406h-42.667968l-238.933594-298.667969v-42.664063c.027344-9.414062 7.652344-17.039062 17.066406-17.066406h187.734375zm0 0" fill="#37474f"/><path d="m401.066406 102.398438v247.46875c-.027344 9.414062-7.652344 17.039062-17.066406 17.066406h-17.066406l-238.933594-298.667969v-42.664063c.027344-9.414062 7.652344-17.039062 17.066406-17.066406h162.132813zm0 0" fill="#607d8b"/><path d="m332.800781 8.535156v85.332032c0 4.710937 3.820313 8.53125 8.53125 8.53125h85.335938zm0 0" fill="#37474f"/><path d="m366.933594 162.132812v256c-.027344 9.414063-7.652344 17.039063-17.066406 17.066407h-42.667969l-238.933594-307.199219v-42.667969c.027344-9.414062 7.652344-17.039062 17.066406-17.066406h187.734375zm0 0" fill="#ad1457"/><path d="m341.332031 162.132812v256c-.027343 9.414063-7.652343 17.039063-17.066406 17.066407h-17.066406l-238.933594-307.199219v-42.667969c.027344-9.414062 7.652344-17.039062 17.066406-17.066406h162.132813zm0 0" fill="#e91e63"/><path d="m273.066406 68.265625v85.335937c0 4.710938 3.820313 8.53125 8.535156 8.53125h85.332032zm0 0" fill="#ad1457"/><path d="m307.199219 221.867188v264.53125c-.027344 9.414062-7.652344 17.039062-17.066407 17.066406h-264.53125c-9.414062-.027344-17.039062-7.652344-17.066406-17.066406v-341.332032c.027344-9.414062 7.652344-17.039062 17.066406-17.066406h187.730469zm0 0" fill="#0377bc"/><path d="m281.601562 221.867188v264.53125c-.03125 9.414062-7.652343 17.039062-17.066406 17.066406h-238.933594c-9.414062-.027344-17.039062-7.652344-17.066406-17.066406v-341.332032c.027344-9.414062 7.652344-17.039062 17.066406-17.066406h162.132813zm0 0" fill="#02a9f4"/><path d="m213.332031 128v85.332031c0 4.714844 3.820313 8.535157 8.535157 8.535157h85.332031zm0 0" fill="#0377bc"/><path d="m290.132812 512c14.140626 0 25.601563-11.460938 25.601563-25.601562v-42.664063h34.132813c14.136718 0 25.597656-11.460937 25.597656-25.601563v-42.667968h34.136718c14.136719 0 25.597657-11.460938 25.597657-25.597656v-247.46875c-.003907-1.117188-.226563-2.222657-.65625-3.257813-.425781-1.035156-1.050781-1.980469-1.84375-2.773437l-93.867188-93.867188c-.792969-.789062-1.734375-1.417969-2.773437-1.84375-1.03125-.425781-2.140625-.65234375-3.257813-.65625h-187.734375c-14.136718 0-25.601562 11.460938-25.601562 25.601562v34.132813h-34.132813c-14.136719 0-25.597656 11.460937-25.597656 25.597656v34.132813h-34.132813c-14.140624 0-25.601562 11.464844-25.601562 25.601562v341.332032c0 14.140624 11.460938 25.601562 25.601562 25.601562zm-68.265624-363.402344 64.734374 64.734375h-64.734374zm59.734374-59.730468 64.730469 64.734374h-64.730469zm59.730469-59.734376 64.734375 64.734376h-64.734375zm-204.796875-3.53125c0-4.714843 3.820313-8.535156 8.53125-8.535156h179.199219v76.800782c0 9.425781 7.640625 17.066406 17.066406 17.066406h76.800781v238.933594c0 4.710937-3.820312 8.53125-8.53125 8.53125h-34.136718v-196.265626c-.003906-1.117187-.226563-2.226562-.65625-3.257812-.425782-1.039062-1.050782-1.980469-1.84375-2.773438l-93.863282-93.867187c-.796874-.792969-1.738281-1.417969-2.773437-1.84375-1.035156-.429687-2.140625-.652344-3.261719-.65625h-136.53125zm-59.734375 59.730469c0-4.710937 3.820313-8.53125 8.53125-8.53125h179.203125v76.800781c0 9.425782 7.640625 17.066407 17.066406 17.066407h76.796876v247.464843c0 4.714844-3.820313 8.535157-8.53125 8.535157h-34.132813v-204.800781c-.007813-1.121094-.230469-2.226563-.65625-3.261719-.429687-1.035157-1.054687-1.976563-1.84375-2.773438l-93.867187-93.863281c-.796876-.792969-1.738282-1.417969-2.773438-1.84375-1.035156-.429688-2.140625-.652344-3.261719-.660156h-136.53125zm-59.734375 401.066407v-341.332032c0-4.710937 3.820313-8.53125 8.535156-8.53125h179.199219v76.796875c0 9.425781 7.640625 17.066407 17.066407 17.066407h76.800781v256c0 4.714843-3.820313 8.535156-8.535157 8.535156h-264.53125c-4.714843 0-8.535156-3.820313-8.535156-8.535156zm0 0"/><path d="m141.652344 239.164062c1.894531 5.058594 6.761718 8.382813 12.160156 8.308594 5.398438-.074218 10.171875-3.527344 11.929688-8.632812l21.605468-65.503906c1.476563-4.476563-.957031-9.300782-5.433594-10.777344-4.476562-1.472656-9.304687.960937-10.777343 5.4375l-17.535157 53.015625-17.496093-53.050781c-.953125-2.894532-3.378907-5.0625-6.363281-5.683594-2.988282-.621094-6.078126.394531-8.109376 2.671875-2.03125 2.273437-2.695312 5.457031-1.738281 8.355469zm0 0"/><path d="m59.734375 247.464844h17.066406c14.136719 0 25.597657-11.460938 25.597657-25.597656 0-4.714844-3.820313-8.535157-8.53125-8.535157-4.714844 0-8.535157 3.820313-8.535157 8.535157 0 4.710937-3.820312 8.53125-8.53125 8.53125h-17.066406c-4.714844 0-8.535156-3.820313-8.535156-8.53125v-34.132813c0-4.714844 3.820312-8.535156 8.535156-8.535156h17.066406c4.710938 0 8.53125 3.820312 8.53125 8.535156 0 4.710937 3.820313 8.53125 8.535157 8.53125 4.710937 0 8.53125-3.820313 8.53125-8.53125 0-14.140625-11.460938-25.601563-25.597657-25.601563h-17.066406c-14.140625 0-25.601563 11.460938-25.601563 25.601563v34.132813c0 14.136718 11.460938 25.597656 25.601563 25.597656zm0 0"/><path d="m136.535156 281.601562c0 4.710938 3.820313 8.53125 8.53125 8.53125h119.46875c4.710938 0 8.53125-3.820312 8.53125-8.53125 0-4.714843-3.820312-8.535156-8.53125-8.535156h-119.46875c-4.710937 0-8.53125 3.820313-8.53125 8.535156zm0 0"/><path d="m51.199219 324.265625h119.46875c4.710937 0 8.53125-3.820313 8.53125-8.53125 0-4.714844-3.820313-8.535156-8.53125-8.535156h-119.46875c-4.710938 0-8.53125 3.820312-8.53125 8.535156 0 4.710937 3.820312 8.53125 8.53125 8.53125zm0 0"/><path d="m264.535156 341.332031h-119.46875c-4.710937 0-8.53125 3.820313-8.53125 8.535157 0 4.710937 3.820313 8.53125 8.53125 8.53125h119.46875c4.710938 0 8.53125-3.820313 8.53125-8.53125 0-4.714844-3.820312-8.535157-8.53125-8.535157zm0 0"/><path d="m51.199219 392.535156h119.46875c4.710937 0 8.53125-3.824218 8.53125-8.535156s-3.820313-8.535156-8.53125-8.535156h-119.46875c-4.710938 0-8.53125 3.824218-8.53125 8.535156s3.820312 8.535156 8.53125 8.535156zm0 0"/><path d="m264.535156 409.601562h-119.46875c-4.710937 0-8.53125 3.820313-8.53125 8.53125 0 4.714844 3.820313 8.535157 8.53125 8.535157h119.46875c4.710938 0 8.53125-3.820313 8.53125-8.535157 0-4.710937-3.820312-8.53125-8.53125-8.53125zm0 0"/><path d="m170.667969 443.734375h-119.46875c-4.710938 0-8.53125 3.820313-8.53125 8.53125 0 4.714844 3.820312 8.535156 8.53125 8.535156h119.46875c4.710937 0 8.53125-3.820312 8.53125-8.535156 0-4.710937-3.820313-8.53125-8.53125-8.53125zm0 0"/><path d="m42.667969 281.601562c0 4.710938 3.820312 8.53125 8.53125 8.53125h59.734375c4.710937 0 8.53125-3.820312 8.53125-8.53125 0-4.714843-3.820313-8.535156-8.53125-8.535156h-59.734375c-4.710938 0-8.53125 3.820313-8.53125 8.535156zm0 0"/><path d="m264.535156 307.199219h-59.734375c-4.714843 0-8.535156 3.820312-8.535156 8.535156 0 4.710937 3.820313 8.53125 8.535156 8.53125h59.734375c4.710938 0 8.53125-3.820313 8.53125-8.53125 0-4.714844-3.820312-8.535156-8.53125-8.535156zm0 0"/><path d="m51.199219 358.398438h59.734375c4.710937 0 8.53125-3.820313 8.53125-8.53125 0-4.714844-3.820313-8.535157-8.53125-8.535157h-59.734375c-4.710938 0-8.53125 3.820313-8.53125 8.535157 0 4.710937 3.820312 8.53125 8.53125 8.53125zm0 0"/><path d="m264.535156 375.464844h-59.734375c-4.714843 0-8.535156 3.824218-8.535156 8.535156s3.820313 8.535156 8.535156 8.535156h59.734375c4.710938 0 8.53125-3.824218 8.53125-8.535156s-3.820312-8.535156-8.53125-8.535156zm0 0"/><path d="m51.199219 426.667969h59.734375c4.710937 0 8.53125-3.820313 8.53125-8.535157 0-4.710937-3.820313-8.53125-8.53125-8.53125h-59.734375c-4.710938 0-8.53125 3.820313-8.53125 8.53125 0 4.714844 3.820312 8.535157 8.53125 8.535157zm0 0"/><path d="m264.535156 443.734375h-59.734375c-4.714843 0-8.535156 3.820313-8.535156 8.53125 0 4.714844 3.820313 8.535156 8.535156 8.535156h59.734375c4.710938 0 8.53125-3.820312 8.53125-8.535156 0-4.710937-3.820312-8.53125-8.53125-8.53125zm0 0"/></svg>